<?xml version="1.0" encoding="UTF-8" standalone="no"?>
<!DOCTYPE svg PUBLIC "-//W3C//DTD SVG 20010904//EN"
              "http://www.w3.org/TR/2001/REC-SVG-20010904/DTD/svg10.dtd">

<svg xmlns="http://www.w3.org/2000/svg"
     width="40px" height="40px"
     viewBox="0 0 800 800">
  <path id="Selection"
        fill="#c82027"
        d="M 176.00,372.71
           C 249.97,351.45 308.84,322.37 367.00,271.15
             388.31,252.39 416.76,223.87 431.95,200.00
             434.12,196.59 437.78,190.85 438.61,187.00
             439.62,182.33 436.15,159.19 435.27,153.00
             435.27,153.00 428.15,99.00 428.15,99.00
             428.15,99.00 424.41,70.00 424.41,70.00
             422.83,61.33 413.02,59.56 414.37,49.00
             415.53,39.82 422.24,35.55 431.00,36.04
             444.60,36.82 449.55,56.43 436.00,63.00
             445.58,75.17 467.41,79.30 482.00,75.76
             493.11,73.07 495.21,68.70 509.00,69.01
             509.00,69.01 519.00,70.00 519.00,70.00
             519.00,70.00 526.00,120.00 526.00,120.00
             512.86,118.27 509.40,118.85 497.00,124.01
             487.13,128.12 483.68,132.86 472.00,133.00
             460.68,133.13 454.79,131.41 446.00,124.00
             446.00,124.00 451.72,173.00 451.72,173.00
             452.32,177.62 453.39,190.52 455.17,194.00
             457.57,198.69 464.99,204.24 469.00,208.03
             481.63,219.97 495.56,230.37 510.00,240.00
             551.77,267.84 599.90,289.47 650.00,295.72
             666.36,297.76 682.53,298.03 699.00,298.00
             699.00,298.00 721.00,297.00 721.00,297.00
             711.73,308.86 685.61,320.25 671.00,324.42
             657.92,328.15 648.40,329.17 635.00,330.09
             635.00,330.09 626.00,330.97 626.00,330.97
             626.00,330.97 616.00,330.04 616.00,330.04
             581.31,328.53 547.18,318.45 515.00,305.80
             515.00,305.80 475.00,287.75 475.00,287.75
             472.07,286.29 459.25,279.36 457.00,279.41
             453.67,279.48 450.90,283.72 448.83,286.00
             448.83,286.00 433.00,302.00 433.00,302.00
             413.76,321.23 390.11,339.19 367.00,353.58
             335.41,373.25 293.59,392.24 257.00,399.55
             232.72,404.41 207.65,404.12 183.00,404.00
             183.00,404.00 166.00,403.00 166.00,403.00
             166.00,403.00 155.00,402.09 155.00,402.09
             155.00,402.09 117.00,398.15 117.00,398.15
             110.13,397.33 86.04,394.32 81.00,392.00
             107.88,389.82 149.75,380.25 176.00,372.71 Z
           M 692.19,373.00
           C 692.19,373.00 685.05,392.00 685.05,392.00
             685.05,392.00 656.81,468.00 656.81,468.00
             656.81,468.00 581.05,672.00 581.05,672.00
             581.05,672.00 559.42,730.00 559.42,730.00
             559.42,730.00 550.19,753.26 550.19,753.26
             550.19,753.26 536.00,756.58 536.00,756.58
             536.00,756.58 499.00,761.00 499.00,761.00
             499.00,761.00 506.42,727.00 506.42,727.00
             506.42,727.00 521.42,658.00 521.42,658.00
             521.42,658.00 553.00,513.00 553.00,513.00
             553.00,513.00 568.00,444.00 568.00,444.00
             568.00,444.00 572.12,425.00 572.12,425.00
             572.66,422.65 573.25,418.44 574.82,416.70
             576.52,414.81 584.29,412.32 587.00,411.32
             587.00,411.32 615.00,400.58 615.00,400.58
             646.12,388.74 666.36,379.19 695.00,362.00
             695.00,362.00 692.19,373.00 692.19,373.00 Z
           M 485.05,464.00
           C 485.05,464.00 477.16,529.00 477.16,529.00
             477.16,529.00 456.84,699.00 456.84,699.00
             456.84,699.00 449.00,764.00 449.00,764.00
             449.00,764.00 394.00,764.00 394.00,764.00
             390.77,763.99 383.15,764.15 381.02,761.42
             379.77,759.81 378.08,746.02 377.59,743.00
             377.59,743.00 370.25,694.00 370.25,694.00
             370.25,694.00 347.58,544.00 347.58,544.00
             347.58,544.00 339.58,491.00 339.58,491.00
             339.58,491.00 335.00,457.00 335.00,457.00
             335.00,457.00 362.00,456.00 362.00,456.00
             362.00,456.00 372.00,455.09 372.00,455.09
             394.99,453.51 417.27,450.04 440.00,446.25
             440.00,446.25 487.00,438.00 487.00,438.00
             488.63,442.45 485.68,458.36 485.05,464.00 Z
           M 170.00,448.58
           C 193.87,452.28 227.25,457.00 251.00,457.00
             251.00,457.00 259.58,488.00 259.58,488.00
             259.58,488.00 274.58,541.00 274.58,541.00
             274.58,541.00 312.42,675.00 312.42,675.00
             312.42,675.00 327.42,728.00 327.42,728.00
             327.42,728.00 336.00,760.00 336.00,760.00
             336.00,760.00 288.00,753.87 288.00,753.87
             283.90,753.29 271.18,751.83 268.49,749.42
             266.80,747.89 264.84,743.21 263.86,741.00
             263.86,741.00 256.14,723.00 256.14,723.00
             256.14,723.00 228.58,660.00 228.58,660.00
             228.58,660.00 163.14,510.00 163.14,510.00
             163.14,510.00 134.00,443.00 134.00,443.00
             134.00,443.00 170.00,448.58 170.00,448.58 Z" />
</svg>
