<?xml version="1.0" encoding="utf-8"?>
<!-- Generator: Adobe Illustrator 16.0.0, SVG Export Plug-In . SVG Version: 6.00 Build 0)  -->
<!DOCTYPE svg PUBLIC "-//W3C//DTD SVG 1.1 Tiny//EN" "http://www.w3.org/Graphics/SVG/1.1/DTD/svg11-tiny.dtd">
<svg version="1.1" baseProfile="tiny" id="Layer_1" xmlns="http://www.w3.org/2000/svg" xmlns:xlink="http://www.w3.org/1999/xlink"
	 x="0px" y="0px" width="40px" height="50px" viewBox="0 0 40 50" xml:space="preserve">
<g>
	<path fill="#D32B24" d="M25.988,7.5C23.867,12.756,14.772,20.236,2.5,21.624c11.196,2.381,19.328-0.224,22.748-5.372
		c1.072,3.825,8.131,4.182,12.253,0.347C28.187,16.732,27.276,11.562,25.988,7.5z"/>
	<path fill="#D32B24" d="M19.123,42.372c1.216,0.089,2.247,0.126,3.484,0.128l2.214-17.688c-2.902,0.595-5.711,0.856-8.346,0.914
		L19.123,42.372z"/>
	<path fill="#D32B24" d="M4.451,24.812l8.435,16.723c0.846,0.212,2.201,0.436,3.794,0.613l-5.576-16.56
		C8.609,25.456,6.364,25.06,4.451,24.812z"/>
	<path fill="#D32B24" d="M25.247,42.414c1.046-0.076,2.006-0.212,2.806-0.415l9.01-21.921c-2.213,1.224-5.491,2.799-7.688,3.524
		L25.247,42.414z"/>
</g>
</svg>
