<?xml version="1.0" standalone="no"?>
<!DOCTYPE svg PUBLIC "-//W3C//DTD SVG 20010904//EN"
 "http://www.w3.org/TR/2001/REC-SVG-20010904/DTD/svg10.dtd">
<svg version="1.0" xmlns="http://www.w3.org/2000/svg"
 width="910.000000pt" height="910.000000pt" viewBox="0 0 910.000000 910.000000"
 preserveAspectRatio="xMidYMid meet">
<metadata>
Created by potrace 1.11, written by Peter Selinger 2001-2013
</metadata>
<g transform="translate(0.000000,910.000000) scale(0.100000,-0.100000)"
fill="#000000" stroke="none">
<path d="M4835 9093 c-55 -15 -99 -60 -116 -121 -18 -65 -7 -117 38 -170 22
-26 47 -58 56 -72 20 -31 26 -66 52 -295 4 -33 9 -67 10 -76 2 -9 6 -40 9 -70
7 -58 16 -122 22 -154 2 -11 6 -42 9 -70 2 -27 7 -61 9 -75 4 -25 14 -97 21
-155 2 -16 7 -52 10 -80 4 -27 9 -63 10 -80 2 -16 8 -61 14 -100 13 -81 18
-126 27 -210 15 -154 12 -169 -66 -296 -47 -76 -169 -242 -212 -289 -13 -14
-50 -57 -83 -95 -59 -70 -355 -369 -450 -456 -60 -54 -247 -213 -295 -251
-107 -83 -200 -155 -218 -167 -12 -8 -71 -49 -132 -92 -251 -176 -668 -405
-935 -515 -22 -9 -64 -27 -93 -40 -29 -13 -58 -24 -65 -24 -7 0 -17 -4 -23 -9
-24 -22 -508 -185 -729 -246 -71 -19 -143 -40 -160 -45 -16 -5 -45 -12 -64
-15 -19 -3 -37 -8 -41 -10 -3 -2 -17 -6 -31 -9 -13 -3 -73 -17 -134 -31 -237
-55 -593 -117 -687 -119 -16 -1 -28 -4 -28 -8 0 -5 2 -8 4 -8 4 0 86 -16 126
-25 14 -3 45 -7 70 -10 25 -2 56 -7 70 -9 27 -6 76 -12 153 -21 26 -3 68 -7
95 -10 26 -3 63 -7 82 -10 19 -2 67 -7 105 -10 39 -4 81 -8 95 -10 38 -5 154
-15 265 -24 102 -9 766 -6 820 3 17 3 55 7 85 11 138 14 219 29 375 70 116 30
336 101 390 125 11 4 76 32 145 61 121 50 379 175 470 227 286 163 502 311
769 527 97 78 243 217 410 389 57 59 114 114 126 122 27 17 27 17 180 -56 173
-83 537 -248 625 -282 173 -68 531 -181 640 -202 14 -3 70 -14 125 -25 115
-23 141 -27 210 -36 28 -3 66 -8 85 -10 135 -17 295 -21 405 -11 44 5 96 10
115 11 103 10 225 33 330 64 221 64 498 212 588 313 l23 26 -73 -5 c-174 -11
-636 -4 -728 11 -14 2 -51 7 -84 11 -59 7 -85 10 -146 21 -19 3 -46 8 -60 10
-14 2 -36 7 -50 10 -14 3 -34 8 -45 10 -48 9 -144 34 -240 63 -343 100 -732
281 -1085 503 -69 43 -134 84 -145 91 -11 6 -22 15 -25 18 -3 3 -27 20 -55 39
-60 40 -247 183 -295 225 -83 73 -247 225 -266 246 -34 38 -49 105 -69 314 -3
33 -8 71 -10 85 -3 14 -7 52 -10 85 -4 33 -8 71 -10 85 -2 14 -7 52 -10 85 -3
33 -8 71 -10 85 -2 14 -7 56 -11 94 -7 75 -8 74 51 32 68 -49 133 -66 242 -67
100 -1 119 4 233 61 184 91 232 105 353 105 l109 0 -7 65 c-3 36 -8 72 -10 80
-5 19 -8 40 -40 275 -14 104 -29 193 -35 199 -5 5 -60 9 -122 9 -100 0 -121
-3 -183 -27 -144 -57 -190 -66 -314 -62 -163 5 -295 52 -378 135 l-34 34 34
23 c38 25 67 86 67 137 -1 65 -50 139 -110 163 -28 11 -104 15 -135 7z"/>
<path d="M8125 4971 c-203 -120 -452 -245 -645 -323 -41 -16 -88 -36 -105 -43
-40 -18 -232 -92 -445 -172 -96 -36 -186 -74 -200 -84 -20 -14 -30 -36 -48
-111 -12 -51 -25 -106 -28 -123 -3 -16 -21 -100 -39 -185 -50 -225 -170 -779
-211 -970 -19 -91 -42 -194 -51 -230 -8 -36 -17 -76 -19 -90 -2 -14 -7 -36
-10 -50 -14 -62 -14 -59 -29 -130 -3 -14 -7 -34 -9 -45 -3 -11 -12 -54 -21
-95 -21 -96 -10 -48 -105 -480 -45 -206 -83 -381 -85 -390 -2 -8 -8 -35 -14
-60 -5 -25 -12 -56 -15 -70 -4 -26 -85 -395 -137 -630 -16 -74 -31 -144 -33
-155 -2 -11 -27 -125 -55 -254 -29 -128 -50 -235 -47 -238 2 -3 44 0 93 6 48
6 108 14 133 16 173 19 178 20 306 46 l101 21 56 141 c53 134 164 430 345 917
44 118 132 355 195 525 64 171 174 470 246 665 72 195 136 363 141 372 6 10
10 22 10 28 0 6 15 49 34 98 44 114 93 244 156 417 28 77 55 149 59 160 5 11
59 157 121 325 62 168 116 314 121 325 4 11 33 90 64 175 31 85 60 164 65 175
5 11 46 118 90 239 73 197 108 312 98 321 -1 2 -39 -18 -83 -44z"/>
<path d="M5495 4053 c-66 -12 -136 -24 -155 -27 -19 -3 -45 -7 -56 -10 -12 -2
-37 -7 -55 -10 -43 -7 -87 -15 -119 -21 -14 -3 -43 -7 -65 -10 -22 -3 -62 -10
-90 -15 -27 -5 -63 -12 -80 -14 -264 -39 -288 -42 -360 -51 -27 -3 -63 -8 -80
-10 -16 -2 -64 -7 -105 -10 -41 -4 -89 -8 -106 -10 -67 -9 -332 -24 -442 -25
l-63 0 5 -42 c6 -59 36 -287 41 -318 9 -55 14 -87 20 -140 4 -30 9 -64 11 -75
2 -11 7 -40 10 -65 3 -25 7 -52 9 -60 2 -8 7 -37 11 -65 3 -27 8 -59 10 -70 2
-10 6 -37 9 -60 3 -22 12 -80 20 -130 8 -49 17 -112 20 -140 4 -27 8 -57 11
-65 2 -9 9 -51 15 -95 6 -44 12 -89 14 -100 2 -11 11 -72 20 -135 18 -126 18
-129 33 -215 6 -33 14 -82 17 -110 3 -27 8 -57 10 -65 2 -8 6 -37 10 -65 3
-27 10 -75 15 -105 5 -30 12 -73 14 -95 3 -23 12 -83 20 -135 9 -52 18 -113
21 -135 3 -22 10 -65 15 -95 6 -30 12 -71 14 -90 3 -19 10 -66 16 -105 6 -38
13 -83 15 -100 2 -16 7 -50 11 -75 4 -25 8 -54 10 -65 1 -11 5 -40 9 -65 3
-25 10 -70 15 -100 5 -30 17 -104 25 -165 9 -60 18 -121 20 -135 4 -27 20
-130 30 -195 10 -67 15 -99 21 -118 12 -40 34 -42 451 -45 l402 -3 5 23 c3 13
8 48 11 78 3 30 12 107 20 170 8 63 17 140 20 170 3 30 8 66 10 80 2 14 7 50
10 80 3 30 12 105 20 165 8 61 17 137 20 170 3 33 8 71 10 85 3 14 7 45 9 70
11 96 17 148 26 220 5 41 12 102 15 135 3 33 8 67 10 75 2 8 6 44 10 80 3 36
8 76 10 90 3 14 7 50 10 80 3 30 8 66 10 80 2 14 7 54 10 90 4 36 8 72 10 81
2 8 6 42 9 75 4 32 16 133 27 224 11 91 22 185 25 210 2 25 6 61 9 80 2 19 9
76 15 125 6 50 13 101 15 115 2 14 7 57 10 95 4 39 8 77 10 85 2 8 7 44 10 80
3 36 8 72 10 80 2 8 7 42 10 75 6 64 13 119 20 175 11 91 25 200 30 245 4 28
8 61 10 75 19 131 31 274 25 296 -5 19 -7 19 -125 -3z"/>
<path d="M1210 4007 c0 -5 149 -353 187 -437 12 -25 40 -90 63 -144 23 -55 53
-125 67 -155 14 -31 31 -69 38 -86 165 -380 222 -511 246 -563 16 -35 29 -65
29 -67 0 -3 13 -34 30 -69 16 -36 41 -92 55 -125 14 -33 36 -84 49 -113 13
-29 60 -136 104 -238 44 -102 112 -259 152 -350 40 -91 94 -216 121 -278 101
-232 152 -348 169 -387 69 -154 240 -547 240 -550 0 -2 13 -32 29 -67 15 -35
39 -88 53 -118 41 -91 57 -100 233 -125 22 -3 51 -8 65 -10 14 -2 52 -7 85
-11 33 -3 68 -8 79 -10 18 -3 113 -15 151 -19 22 -2 127 -15 165 -20 14 -2 45
-7 69 -10 38 -6 43 -4 37 10 -3 9 -9 29 -12 43 -10 40 -130 479 -171 622 -19
69 -39 139 -43 155 -5 17 -27 95 -50 175 -22 80 -43 152 -45 160 -9 34 -86
309 -100 355 -31 105 -207 731 -210 748 -2 10 -9 32 -14 50 -6 18 -24 79 -41
137 -133 470 -268 949 -316 1123 l-57 207 -81 1 c-85 1 -103 2 -231 13 -138
12 -242 23 -295 31 -14 2 -63 9 -110 15 -47 7 -96 13 -110 15 -14 2 -39 6 -56
9 -17 3 -46 8 -65 10 -19 3 -51 7 -71 10 -21 3 -55 8 -75 11 -21 3 -81 13
-133 21 -52 9 -104 18 -115 19 -11 2 -41 6 -67 10 -27 4 -48 5 -48 2z"/>
</g>
</svg>
